<svg xmlns="http://www.w3.org/2000/svg" height="200" width="200" style="background: #fff;"><rect y="0" x="0" width="25" height="25" rx="5" transform="translate(0,0)"
                style="fill: #eee;"/>
<rect y="0" x="0" width="25" height="25" rx="5" transform="translate(40,0)"
                style="fill: #eee;"/>
<rect y="0" x="0" width="25" height="25" rx="5" transform="translate(80,0)"
                style="fill: #eee;"/>
<rect y="0" x="0" width="25" height="25" rx="5" transform="translate(120,0)"
                style="fill: #eee;"/>
<rect y="0" x="0" width="25" height="25" rx="5" transform="translate(160,0)"
                style="fill: #eee;"/>
<rect y="0" x="0" width="25" height="25" rx="5" transform="translate(0,40)"
                style="fill: #eee;"/>
<rect y="0" x="0" width="25" height="25" rx="5" transform="translate(40,40)"
                style="fill:#f00; stroke:#ccc; stroke-width:2px;"/>
<rect y="0" x="0" width="25" height="25" rx="5" transform="translate(80,40)"
                style="fill:#f00; stroke:#ccc; stroke-width:2px;"/>
<rect y="0" x="0" width="25" height="25" rx="5" transform="translate(120,40)"
                style="fill:#f00; stroke:#ccc; stroke-width:2px;"/>
<rect y="0" x="0" width="25" height="25" rx="5" transform="translate(160,40)"
                style="fill: #eee;"/>
<rect y="0" x="0" width="25" height="25" rx="5" transform="translate(0,80)"
                style="fill:#f00; stroke:#ccc; stroke-width:2px;"/>
<rect y="0" x="0" width="25" height="25" rx="5" transform="translate(40,80)"
                style="fill:#f00; stroke:#ccc; stroke-width:2px;"/>
<rect y="0" x="0" width="25" height="25" rx="5" transform="translate(80,80)"
                style="fill:#f00; stroke:#ccc; stroke-width:2px;"/>
<rect y="0" x="0" width="25" height="25" rx="5" transform="translate(120,80)"
                style="fill:#f00; stroke:#ccc; stroke-width:2px;"/>
<rect y="0" x="0" width="25" height="25" rx="5" transform="translate(160,80)"
                style="fill:#f00; stroke:#ccc; stroke-width:2px;"/>
<rect y="0" x="0" width="25" height="25" rx="5" transform="translate(0,120)"
                style="fill: #eee;"/>
<rect y="0" x="0" width="25" height="25" rx="5" transform="translate(40,120)"
                style="fill:#f00; stroke:#ccc; stroke-width:2px;"/>
<rect y="0" x="0" width="25" height="25" rx="5" transform="translate(80,120)"
                style="fill: #eee;"/>
<rect y="0" x="0" width="25" height="25" rx="5" transform="translate(120,120)"
                style="fill:#f00; stroke:#ccc; stroke-width:2px;"/>
<rect y="0" x="0" width="25" height="25" rx="5" transform="translate(160,120)"
                style="fill: #eee;"/>
<rect y="0" x="0" width="25" height="25" rx="5" transform="translate(0,160)"
                style="fill: #eee;"/>
<rect y="0" x="0" width="25" height="25" rx="5" transform="translate(40,160)"
                style="fill: #eee;"/>
<rect y="0" x="0" width="25" height="25" rx="5" transform="translate(80,160)"
                style="fill: #eee;"/>
<rect y="0" x="0" width="25" height="25" rx="5" transform="translate(120,160)"
                style="fill: #eee;"/>
<rect y="0" x="0" width="25" height="25" rx="5" transform="translate(160,160)"
                style="fill: #eee;"/>
</svg>